<?xml version="1.0" standalone="no"?>
<svg xmlns:xlink="http://www.w3.org/1999/xlink" 
    id="wave" 
    style="transform:rotate(0deg); 
    transition: 0.3s" 

    viewBox="0 0 1440 380" 
    version="1.1" 
    xmlns="http://www.w3.org/2000/svg">
    <defs>
    <linearGradient id="sw-gradient-0" x1="0" x2="0" y1="1" y2="0"><stop stop-color="rgba(243, 106, 62, 1)" offset="0%"/><stop stop-color="rgba(234.829, 222.43, 215.522, 1)" offset="100%"/></linearGradient></defs><path style="transform:translate(0, 0px); opacity:1" fill="url(#sw-gradient-0)" d="M0,190L40,215.3C80,241,160,291,240,316.7C320,342,400,342,480,304C560,266,640,190,720,152C800,114,880,114,960,101.3C1040,89,1120,63,1200,76C1280,89,1360,139,1440,158.3C1520,177,1600,165,1680,158.3C1760,152,1840,152,1920,139.3C2000,127,2080,101,2160,101.3C2240,101,2320,127,2400,171C2480,215,2560,279,2640,266C2720,253,2800,165,2880,126.7C2960,89,3040,101,3120,88.7C3200,76,3280,38,3360,69.7C3440,101,3520,203,3600,259.7C3680,317,3760,329,3840,310.3C3920,291,4000,241,4080,183.7C4160,127,4240,63,4320,63.3C4400,63,4480,127,4560,177.3C4640,228,4720,266,4800,272.3C4880,279,4960,253,5040,247C5120,241,5200,253,5280,272.3C5360,291,5440,317,5520,285C5600,253,5680,165,5720,120.3L5760,76L5760,380L5720,380C5680,380,5600,380,5520,380C5440,380,5360,380,5280,380C5200,380,5120,380,5040,380C4960,380,4880,380,4800,380C4720,380,4640,380,4560,380C4480,380,4400,380,4320,380C4240,380,4160,380,4080,380C4000,380,3920,380,3840,380C3760,380,3680,380,3600,380C3520,380,3440,380,3360,380C3280,380,3200,380,3120,380C3040,380,2960,380,2880,380C2800,380,2720,380,2640,380C2560,380,2480,380,2400,380C2320,380,2240,380,2160,380C2080,380,2000,380,1920,380C1840,380,1760,380,1680,380C1600,380,1520,380,1440,380C1360,380,1280,380,1200,380C1120,380,1040,380,960,380C880,380,800,380,720,380C640,380,560,380,480,380C400,380,320,380,240,380C160,380,80,380,40,380L0,380Z"/><defs><linearGradient id="sw-gradient-1" x1="0" x2="0" y1="1" y2="0"><stop stop-color="rgba(243, 237.124, 62, 1)" offset="0%"/><stop stop-color="rgba(246.39, 11, 255, 1)" offset="100%"/></linearGradient></defs><path style="transform:translate(0, 50px); opacity:0.9" fill="url(#sw-gradient-1)" d="M0,114L40,114C80,114,160,114,240,126.7C320,139,400,165,480,145.7C560,127,640,63,720,57C800,51,880,101,960,133C1040,165,1120,177,1200,190C1280,203,1360,215,1440,196.3C1520,177,1600,127,1680,120.3C1760,114,1840,152,1920,183.7C2000,215,2080,241,2160,209C2240,177,2320,89,2400,44.3C2480,0,2560,0,2640,6.3C2720,13,2800,25,2880,69.7C2960,114,3040,190,3120,228C3200,266,3280,266,3360,253.3C3440,241,3520,215,3600,183.7C3680,152,3760,114,3840,101.3C3920,89,4000,101,4080,133C4160,165,4240,215,4320,215.3C4400,215,4480,165,4560,133C4640,101,4720,89,4800,101.3C4880,114,4960,152,5040,158.3C5120,165,5200,139,5280,164.7C5360,190,5440,266,5520,259.7C5600,253,5680,165,5720,120.3L5760,76L5760,380L5720,380C5680,380,5600,380,5520,380C5440,380,5360,380,5280,380C5200,380,5120,380,5040,380C4960,380,4880,380,4800,380C4720,380,4640,380,4560,380C4480,380,4400,380,4320,380C4240,380,4160,380,4080,380C4000,380,3920,380,3840,380C3760,380,3680,380,3600,380C3520,380,3440,380,3360,380C3280,380,3200,380,3120,380C3040,380,2960,380,2880,380C2800,380,2720,380,2640,380C2560,380,2480,380,2400,380C2320,380,2240,380,2160,380C2080,380,2000,380,1920,380C1840,380,1760,380,1680,380C1600,380,1520,380,1440,380C1360,380,1280,380,1200,380C1120,380,1040,380,960,380C880,380,800,380,720,380C640,380,560,380,480,380C400,380,320,380,240,380C160,380,80,380,40,380L0,380Z"/><defs><linearGradient id="sw-gradient-2" x1="0" x2="0" y1="1" y2="0"><stop stop-color="rgba(122.144, 4.906, 243.936, 1)" offset="0%"/><stop stop-color="rgba(7.151, 7.151, 7.151, 1)" offset="100%"/></linearGradient></defs><path style="transform:translate(0, 100px); opacity:0.8" fill="url(#sw-gradient-2)" d="M0,266L40,247C80,228,160,190,240,196.3C320,203,400,253,480,285C560,317,640,329,720,278.7C800,228,880,114,960,107.7C1040,101,1120,203,1200,253.3C1280,304,1360,304,1440,259.7C1520,215,1600,127,1680,82.3C1760,38,1840,38,1920,82.3C2000,127,2080,215,2160,240.7C2240,266,2320,228,2400,177.3C2480,127,2560,63,2640,57C2720,51,2800,101,2880,145.7C2960,190,3040,228,3120,259.7C3200,291,3280,317,3360,278.7C3440,241,3520,139,3600,82.3C3680,25,3760,13,3840,31.7C3920,51,4000,101,4080,107.7C4160,114,4240,76,4320,101.3C4400,127,4480,215,4560,259.7C4640,304,4720,304,4800,285C4880,266,4960,228,5040,183.7C5120,139,5200,89,5280,76C5360,63,5440,89,5520,107.7C5600,127,5680,139,5720,145.7L5760,152L5760,380L5720,380C5680,380,5600,380,5520,380C5440,380,5360,380,5280,380C5200,380,5120,380,5040,380C4960,380,4880,380,4800,380C4720,380,4640,380,4560,380C4480,380,4400,380,4320,380C4240,380,4160,380,4080,380C4000,380,3920,380,3840,380C3760,380,3680,380,3600,380C3520,380,3440,380,3360,380C3280,380,3200,380,3120,380C3040,380,2960,380,2880,380C2800,380,2720,380,2640,380C2560,380,2480,380,2400,380C2320,380,2240,380,2160,380C2080,380,2000,380,1920,380C1840,380,1760,380,1680,380C1600,380,1520,380,1440,380C1360,380,1280,380,1200,380C1120,380,1040,380,960,380C880,380,800,380,720,380C640,380,560,380,480,380C400,380,320,380,240,380C160,380,80,380,40,380L0,380Z"/></svg>